<?xml version="1.0" standalone="no"?><!DOCTYPE svg PUBLIC "-//W3C//DTD SVG 1.1//EN" "http://www.w3.org/Graphics/SVG/1.1/DTD/svg11.dtd"><svg height="1024" node-id="1" sillyvg="true" template-height="1024" template-width="1024" version="1.1" viewBox="0 0 1024 1024" width="1024" xmlns="http://www.w3.org/2000/svg" xmlns:xlink="http://www.w3.org/1999/xlink"><defs node-id="110"><linearGradient gradientUnits="userSpaceOnUse" id="paint0_linear_1512_110638" node-id="41" spreadMethod="pad" x1="506" x2="506" y1="635" y2="890"><stop offset="0" stop-color="#bddfff"></stop><stop offset="0.95892" stop-color="#ffffff" stop-opacity="0"></stop></linearGradient><linearGradient gradientUnits="userSpaceOnUse" id="paint1_linear_1512_110638" node-id="44" spreadMethod="pad" x1="229.66" x2="229.66" y1="754.678" y2="615.257"><stop offset="0" stop-color="#5fb2ff"></stop><stop offset="0.7893" stop-color="#dff0ff"></stop></linearGradient><linearGradient gradientUnits="userSpaceOnUse" id="paint2_linear_1512_110638" node-id="47" spreadMethod="pad" x1="229.661" x2="229.661" y1="630.738" y2="784.347"><stop offset="0" stop-color="#dff0ff"></stop><stop offset="0.818" stop-color="#a2d2ff"></stop></linearGradient><linearGradient gradientUnits="userSpaceOnUse" id="paint3_linear_1512_110638" node-id="50" spreadMethod="pad" x1="883.842" x2="847.534" y1="720.042" y2="802.968"><stop offset="0.365159" stop-color="#c4e3ff"></stop><stop offset="1" stop-color="#5fb2ff"></stop></linearGradient><linearGradient gradientUnits="userSpaceOnUse" id="paint4_linear_1512_110638" node-id="53" spreadMethod="pad" x1="649.318" x2="605.494" y1="778.74" y2="696.911"><stop offset="0.568288" stop-color="#97cdff"></stop><stop offset="1" stop-color="#5fb2ff"></stop></linearGradient><linearGradient gradientUnits="userSpaceOnUse" id="paint5_linear_1512_110638" node-id="56" spreadMethod="pad" x1="671.219" x2="590.881" y1="630.376" y2="331.974"><stop offset="0" stop-color="#6cb8ff"></stop><stop offset="0.656831" stop-color="#8fc8ff"></stop></linearGradient><linearGradient gradientUnits="userSpaceOnUse" id="paint6_linear_1512_110638" node-id="59" spreadMethod="pad" x1="629.018" x2="582.555" y1="332.056" y2="480.086"><stop offset="0" stop-color="#6cb8ff"></stop><stop offset="0.656831" stop-color="#8fc8ff"></stop></linearGradient><linearGradient gradientUnits="userSpaceOnUse" id="paint7_linear_1512_110638" node-id="62" spreadMethod="pad" x1="564" x2="454.341" y1="559" y2="658.538"><stop offset="0" stop-color="#acd7ff"></stop><stop offset="0.886002" stop-color="#8fc8ff"></stop></linearGradient><linearGradient gradientUnits="userSpaceOnUse" id="paint8_linear_1512_110638" node-id="65" spreadMethod="pad" x1="435.928" x2="434.555" y1="582.189" y2="603.232"><stop offset="0" stop-color="#ffcda5"></stop><stop offset="1" stop-color="#ffe8d1"></stop></linearGradient><linearGradient gradientUnits="userSpaceOnUse" id="paint9_linear_1512_110638" node-id="68" spreadMethod="pad" x1="441.808" x2="405.105" y1="532.711" y2="578.865"><stop offset="0" stop-color="#fff2df"></stop><stop offset="1" stop-color="#fee0bc"></stop></linearGradient><linearGradient gradientUnits="userSpaceOnUse" id="paint10_linear_1512_110638" node-id="71" spreadMethod="pad" x1="424.947" x2="461.536" y1="535.064" y2="577.621"><stop offset="0" stop-color="#777ca7"></stop><stop offset="1" stop-color="#636681"></stop></linearGradient><linearGradient gradientUnits="userSpaceOnUse" id="paint11_linear_1512_110638" node-id="74" spreadMethod="pad" x1="379.689" x2="420.065" y1="580.488" y2="713.355"><stop offset="0" stop-color="#ffe194"></stop><stop offset="1" stop-color="#ffbf84"></stop></linearGradient><linearGradient gradientUnits="userSpaceOnUse" id="paint12_linear_1512_110638" node-id="77" spreadMethod="pad" x1="379.689" x2="420.065" y1="580.488" y2="713.355"><stop offset="0" stop-color="#ffe194"></stop><stop offset="1" stop-color="#ffbf84"></stop></linearGradient><linearGradient gradientUnits="userSpaceOnUse" id="paint13_linear_1512_110638" node-id="80" spreadMethod="pad" x1="371.66" x2="365.887" y1="646.019" y2="660.769"><stop offset="0" stop-color="#fee4c3"></stop><stop offset="1" stop-color="#ffd1ac"></stop></linearGradient><linearGradient gradientUnits="userSpaceOnUse" id="paint14_linear_1512_110638" node-id="83" spreadMethod="pad" x1="416.233" x2="391.429" y1="574.441" y2="674.003"><stop offset="0" stop-color="#ffe194"></stop><stop offset="1" stop-color="#ffbf84"></stop></linearGradient><linearGradient gradientUnits="userSpaceOnUse" id="paint15_linear_1512_110638" node-id="86" spreadMethod="pad" x1="384.599" x2="389.911" y1="666.97" y2="652.047"><stop offset="0" stop-color="#fee4c3"></stop><stop offset="1" stop-color="#ffd1ac"></stop></linearGradient><linearGradient gradientUnits="userSpaceOnUse" id="paint16_linear_1512_110638" node-id="89" spreadMethod="pad" x1="456.526" x2="423.438" y1="588.247" y2="681.248"><stop offset="0" stop-color="#ffe194"></stop><stop offset="1" stop-color="#ffbf84"></stop></linearGradient><linearGradient gradientUnits="userSpaceOnUse" id="paint17_linear_1512_110638" node-id="92" spreadMethod="pad" x1="265.477" x2="249.067" y1="541.083" y2="529.499"><stop offset="0" stop-color="#6cb8ff"></stop><stop offset="0.656831" stop-color="#8fc8ff"></stop></linearGradient><linearGradient gradientUnits="userSpaceOnUse" id="paint18_linear_1512_110638" node-id="95" spreadMethod="pad" x1="263.774" x2="256.483" y1="539.611" y2="531.15"><stop offset="0" stop-color="#b2daff"></stop><stop offset="1" stop-color="#88c5ff"></stop></linearGradient><linearGradient gradientUnits="userSpaceOnUse" id="paint19_linear_1512_110638" node-id="98" spreadMethod="pad" x1="296.681" x2="254.612" y1="446.069" y2="504.433"><stop offset="0" stop-color="#b2daff"></stop><stop offset="1" stop-color="#88c5ff"></stop></linearGradient><linearGradient gradientUnits="userSpaceOnUse" id="paint20_linear_1512_110638" node-id="101" spreadMethod="pad" x1="266.148" x2="252.29" y1="469.415" y2="503.719"><stop offset="0" stop-color="#b2daff"></stop><stop offset="1" stop-color="#88c5ff"></stop></linearGradient><linearGradient gradientUnits="userSpaceOnUse" id="paint21_linear_1512_110638" node-id="104" spreadMethod="pad" x1="318.308" x2="287.401" y1="487.928" y2="493.982"><stop offset="0" stop-color="#b2daff"></stop><stop offset="1" stop-color="#88c5ff"></stop></linearGradient><clipPath id="clip0_1512_110638" node-id="107"><path d="M 0.00 0.00 L 1024.00 0.00 L 1024.00 1024.00 L 0.00 1024.00 Z" fill="#000000" fill-rule="nonzero" node-id="245" stroke="none" target-height="1024" target-width="1024" target-x="0" target-y="0"></path></clipPath></defs><g clip-path="url(#clip0_1512_110638)" id="sillyvg_g_0" node-id="249"><path d="M 973.00 762.50 C 973.00 796.32 923.80 828.75 836.22 852.66 C 748.64 876.57 629.86 890.00 506.00 890.00 C 382.14 890.00 263.36 876.57 175.78 852.66 C 88.20 828.75 39.00 796.32 39.00 762.50 C 39.00 728.68 88.20 696.25 175.78 672.34 C 263.36 648.43 382.14 635.00 506.00 635.00 C 629.86 635.00 748.64 648.43 836.22 672.34 C 923.80 696.25 973.00 728.68 973.00 762.50 Z" fill="url(#paint0_linear_1512_110638)" fill-rule="nonzero" node-id="251" stroke="none" target-height="255" target-width="934" target-x="39" target-y="635"></path><path d="M 230.46 615.50 C 230.46 615.50 230.23 614.92 229.93 615.54 C 227.18 621.12 202.33 681.57 200.36 728.22 C 200.36 728.22 196.22 755.02 230.97 754.66 C 259.97 754.37 259.20 729.66 259.10 721.34 C 258.70 687.57 230.46 615.50 230.46 615.50 Z" fill="url(#paint1_linear_1512_110638)" fill-rule="nonzero" node-id="253" stroke="none" target-height="140.10004" target-width="63.75" target-x="196.22" target-y="614.92"></path><path d="M 229.66 784.34 C 229.10 784.34 228.65 783.89 228.65 783.33 L 228.65 631.75 C 228.65 631.20 229.10 630.74 229.66 630.74 C 230.22 630.74 230.68 631.20 230.68 631.75 L 230.68 783.33 C 230.68 783.90 230.22 784.34 229.66 784.34 Z" fill="url(#paint2_linear_1512_110638)" fill-rule="nonzero" node-id="255" stroke="none" target-height="153.60004" target-width="2.0299988" target-x="228.65" target-y="630.74"></path><path d="M 869.35 810.66 C 876.54 808.40 883.52 805.45 889.87 797.18 C 891.18 795.48 892.40 793.31 891.69 791.28 C 891.15 789.76 889.59 788.78 888.01 788.53 C 887.42 788.44 886.83 788.43 886.23 788.48 L 886.23 788.48 C 885.32 788.57 884.41 788.75 883.54 789.01 L 883.28 789.09 C 879.09 790.30 875.09 792.13 871.42 794.52 C 871.09 794.74 870.70 794.83 870.31 794.79 C 869.91 794.75 869.55 794.58 869.27 794.30 C 868.98 794.02 868.80 793.65 868.75 793.25 C 868.70 792.86 868.79 792.45 868.99 792.11 C 869.37 791.49 869.80 790.91 870.29 790.38 C 871.01 789.61 871.81 788.92 872.66 788.30 C 873.79 787.46 874.99 786.72 876.17 785.95 C 880.56 783.12 884.72 779.93 888.61 776.42 C 891.38 773.91 894.09 771.13 895.41 767.61 C 896.01 765.99 896.29 764.12 895.57 762.55 C 894.38 759.97 891.00 759.25 888.24 759.78 C 883.40 760.72 879.53 764.32 876.10 767.91 C 873.26 770.89 870.08 774.19 865.99 774.37 C 865.29 774.44 864.59 774.30 863.98 773.96 C 862.81 773.25 862.51 771.59 862.93 770.27 C 863.34 768.95 864.30 767.90 865.23 766.89 C 870.62 761.02 875.93 754.92 879.43 747.73 C 882.93 740.53 884.48 732.04 882.05 724.41 C 881.34 722.18 880.26 720.00 878.59 718.38 C 876.92 716.76 874.58 715.75 872.28 716.06 C 869.15 716.47 866.80 719.15 865.21 721.91 C 859.77 731.40 860.10 743.02 858.57 753.89 C 858.14 756.93 857.51 760.05 855.73 762.56 C 855.56 762.80 855.35 763.00 855.10 763.15 C 853.63 764.01 852.31 762.27 851.76 760.79 C 849.58 754.95 849.04 748.26 845.14 743.43 C 843.65 741.59 841.54 740.05 839.20 740.06 C 836.33 740.08 833.88 742.51 833.04 745.29 C 832.20 748.07 832.71 751.10 833.60 753.86 C 835.26 758.98 838.25 763.58 841.76 767.63 C 843.61 769.76 845.71 771.92 846.26 774.71 C 846.43 775.65 846.36 776.63 846.05 777.54 C 845.75 778.45 845.22 779.27 844.51 779.91 C 844.18 780.20 843.80 780.42 843.39 780.56 C 842.97 780.70 842.53 780.75 842.10 780.71 C 841.16 780.63 840.31 780.14 839.48 779.67 C 839.14 779.47 838.79 779.26 838.45 779.07 C 837.08 778.28 835.71 777.48 834.34 776.69 C 830.85 774.67 826.65 772.61 823.02 774.35 C 821.17 775.24 819.95 776.98 819.38 778.99 C 818.87 780.80 818.87 782.73 819.38 784.55 C 820.46 788.33 827.28 798.85 830.09 801.56 C 833.37 804.73 844.75 818.40 869.35 810.66 Z" fill="url(#paint3_linear_1512_110638)" fill-rule="nonzero" node-id="257" stroke="none" target-height="102.650024" target-width="77.41998" target-x="818.87" target-y="715.75"></path><path d="M 649.64 740.68 C 650.38 738.63 650.88 736.31 651.02 733.58 C 651.10 732.14 650.95 730.46 649.77 729.60 C 648.89 728.96 647.65 729.01 646.67 729.47 C 646.31 729.65 645.98 729.87 645.67 730.13 L 645.66 730.13 C 645.19 730.53 644.76 730.97 644.37 731.46 L 644.26 731.59 C 642.39 733.87 640.88 736.42 639.75 739.15 C 639.65 739.40 639.47 739.60 639.24 739.73 C 639.00 739.86 638.73 739.90 638.47 739.85 C 638.20 739.80 637.96 739.67 637.78 739.46 C 637.60 739.26 637.50 739.01 637.48 738.74 C 637.45 738.25 637.47 737.76 637.54 737.28 C 637.64 736.57 637.82 735.88 638.05 735.21 C 638.30 734.49 638.60 733.78 638.90 733.07 C 638.97 732.90 639.04 732.73 639.11 732.56 C 640.46 729.30 641.55 725.94 642.36 722.50 C 642.94 720.04 643.38 717.46 642.77 714.99 C 642.48 713.86 641.92 712.71 640.92 712.11 C 639.27 711.13 637.11 712.02 635.78 713.37 C 633.46 715.74 632.69 719.23 632.15 722.53 C 631.72 725.28 631.21 728.34 629.01 730.00 C 628.65 730.30 628.21 730.49 627.74 730.54 C 626.82 730.59 626.01 729.78 625.74 728.89 C 625.47 727.99 625.60 727.04 625.72 726.12 C 626.47 720.79 627.08 715.36 626.27 710.02 C 625.46 704.67 623.07 699.35 618.79 696.03 C 617.54 695.06 616.11 694.26 614.56 693.99 C 613.01 693.73 611.32 694.06 610.16 695.11 C 608.59 696.53 608.30 698.92 608.48 701.07 C 608.94 706.63 611.70 711.62 614.45 716.58 C 615.34 718.19 616.23 719.80 617.04 721.43 C 617.97 723.28 618.82 725.26 618.78 727.34 C 618.78 727.54 618.74 727.73 618.66 727.91 C 618.18 728.95 616.78 728.49 615.90 727.87 C 614.78 727.08 613.72 726.18 612.66 725.28 C 610.47 723.40 608.28 721.54 605.57 720.73 C 604.04 720.27 602.28 720.22 600.98 721.12 C 599.39 722.23 598.96 724.52 599.56 726.39 C 600.16 728.26 601.60 729.75 603.15 730.95 C 606.04 733.17 609.46 734.59 612.96 735.50 C 613.14 735.55 613.33 735.60 613.51 735.64 C 615.19 736.07 616.93 736.52 618.18 737.73 C 618.63 738.19 618.97 738.76 619.15 739.38 C 619.33 740.01 619.35 740.67 619.20 741.29 C 619.13 741.58 619.00 741.85 618.82 742.09 C 618.65 742.32 618.42 742.52 618.17 742.66 C 617.61 742.98 616.95 743.03 616.31 743.08 C 616.23 743.09 616.14 743.09 616.05 743.10 C 615.87 743.11 615.69 743.13 615.51 743.14 C 614.44 743.22 613.38 743.31 612.31 743.39 C 609.60 743.60 606.48 744.05 605.13 746.41 C 604.44 747.61 604.43 749.05 604.88 750.38 C 605.30 751.59 606.03 752.66 607.01 753.48 C 608.30 754.55 611.56 756.24 614.44 757.46 C 618.51 760.98 630.19 760.95 644.50 760.90 C 646.08 760.90 647.68 760.90 649.32 760.90 C 650.95 760.90 652.56 760.90 654.13 760.90 C 671.97 760.96 685.73 761.00 685.73 754.16 C 685.73 746.76 669.60 740.75 649.64 740.68 Z" fill="url(#paint4_linear_1512_110638)" fill-rule="evenodd" node-id="259" stroke="none" target-height="67.27002" target-width="86.76996" target-x="598.96" target-y="693.73"></path><path d="M 482.77 590.29 C 401.43 539.29 363.64 418.64 405.72 351.51 C 447.81 284.39 502.62 325.25 583.96 376.25 C 665.30 427.24 787.12 483.32 745.04 550.45 C 702.96 617.57 564.11 641.28 482.77 590.29 Z" fill="url(#paint5_linear_1512_110638)" fill-rule="nonzero" node-id="261" stroke="none" target-height="356.89" target-width="423.47998" target-x="363.64" target-y="284.39"></path><path d="M 654.55 338.65 C 650.36 334.45 649.75 327.86 653.44 322.83 C 657.67 317.06 665.97 315.55 671.97 319.44 C 677.98 323.34 679.41 331.18 675.18 336.94 C 671.49 341.97 664.71 343.77 659.05 341.57 L 562.42 495.52 L 638.48 374.35 C 725.63 432.46 773.29 509.37 745.20 547.63 C 716.61 586.56 620.44 570.74 530.38 512.30 C 440.32 453.85 390.48 374.91 419.06 335.99 C 447.16 297.72 540.55 312.35 629.25 368.35 L 534.80 479.24 L 654.55 338.65 L 654.55 338.65 Z" fill="#e4f2ff" fill-rule="nonzero" node-id="263" stroke="none" target-height="288.84" target-width="382.80997" target-x="390.48" target-y="297.72"></path><path d="M 671.97 319.45 C 677.98 323.34 679.41 331.18 675.18 336.95 C 671.49 341.97 664.71 343.77 659.05 341.57 L 561.68 496.70 C 561.48 497.02 561.26 497.35 561.03 497.66 C 555.78 504.81 545.49 506.69 538.04 501.86 C 537.72 501.65 537.40 501.42 537.09 501.19 C 530.05 495.85 529.02 486.03 534.80 479.25 L 654.55 338.65 C 650.36 334.46 649.75 327.86 653.44 322.84 C 657.67 317.07 665.97 315.55 671.97 319.45 Z" fill="url(#paint6_linear_1512_110638)" fill-rule="nonzero" node-id="265" stroke="none" target-height="191.14001" target-width="150.38995" target-x="529.02" target-y="315.55"></path><path d="M 466.75 572.16 C 467.68 564.65 474.07 559.00 481.64 559.00 L 523.62 559.00 C 530.90 559.00 537.12 564.22 538.39 571.38 L 560.88 698.38 C 562.51 707.57 555.44 716.00 546.11 716.00 L 465.96 716.00 C 456.95 716.00 449.97 708.11 451.08 699.16 L 466.75 572.16 Z" fill="url(#paint7_linear_1512_110638)" fill-rule="nonzero" node-id="267" stroke="none" target-height="157" target-width="112.54001" target-x="449.97" target-y="559"></path><path d="M 491.00 585.50 C 491.00 588.82 492.37 592.00 494.81 594.34 C 497.25 596.68 500.55 598.00 504.00 598.00 C 507.45 598.00 510.75 596.68 513.19 594.34 C 515.63 592.00 517.00 588.82 517.00 585.50 C 517.00 582.18 515.63 579.00 513.19 576.66 C 510.75 574.32 507.45 573.00 504.00 573.00 C 500.55 573.00 497.25 574.32 494.81 576.66 C 492.37 579.00 491.00 582.18 491.00 585.50 Z" fill="#76bcff" fill-rule="nonzero" node-id="269" stroke="none" target-height="25" target-width="26" target-x="491" target-y="573"></path><path d="M 753.45 221.20 C 730.04 203.30 701.08 195.17 671.52 198.07 C 667.04 198.40 663.78 202.53 664.11 207.01 C 664.66 211.67 668.78 214.93 673.44 214.38 C 697.19 212.13 720.93 218.43 740.38 232.17 L 753.45 221.20 Z M 724.49 245.50 C 710.02 236.56 693.21 232.43 675.95 233.96 C 671.46 234.30 668.21 238.42 668.58 243.29 C 668.91 247.78 673.03 251.04 677.52 250.71 C 689.08 249.63 700.61 251.86 710.87 256.94 L 724.49 245.50 Z M 730.19 271.73 L 742.91 261.06 C 752.93 272.49 759.48 286.56 761.87 301.79 C 762.59 306.24 759.56 310.53 754.90 311.08 C 752.57 311.35 750.14 310.85 748.41 309.48 C 746.89 308.28 745.67 306.26 745.22 304.15 C 743.33 291.91 738.13 280.75 730.19 271.73 Z M 696.90 268.66 C 691.48 267.00 685.75 266.34 680.00 266.75 C 677.83 266.91 675.82 267.92 674.39 269.56 C 672.96 271.21 672.24 273.34 672.37 275.52 C 672.54 277.69 673.55 279.70 675.19 281.13 C 676.46 282.24 678.02 282.92 679.67 283.11 L 696.90 268.66 Z M 705.18 292.71 L 717.91 282.03 C 723.79 288.52 727.73 296.51 729.21 305.24 C 729.93 309.68 726.89 313.98 722.45 314.70 C 719.95 315.19 717.53 314.69 715.79 313.32 C 714.27 312.12 713.27 310.27 712.82 308.16 C 711.83 302.34 709.15 296.98 705.18 292.71 Z M 758.14 248.27 L 770.86 237.60 C 785.37 254.43 794.75 275.12 797.98 297.54 C 798.70 301.99 795.45 306.11 791.00 306.82 C 789.87 307.05 788.70 307.03 787.58 306.75 C 786.46 306.48 785.41 305.96 784.51 305.23 C 782.99 304.03 781.77 302.01 781.33 299.90 C 778.79 280.66 770.66 262.75 758.14 248.27 Z" fill="#6cb8ff" fill-rule="evenodd" node-id="271" stroke="none" target-height="120.020004" target-width="134.91998" target-x="663.78" target-y="195.17"></path><path d="M 767.51 214.20 C 770.96 211.31 776.10 211.76 778.99 215.20 C 781.89 218.65 781.44 223.79 777.99 226.68 L 678.91 309.82 C 675.46 312.71 670.32 312.26 667.43 308.81 C 664.54 305.37 664.99 300.23 668.43 297.33 L 767.51 214.20 Z" fill="#74bcff" fill-rule="nonzero" node-id="273" stroke="none" target-height="101.399994" target-width="117.35004" target-x="664.54" target-y="211.31"></path><path d="M 472.00 736.50 C 472.00 745.06 446.70 752.00 415.50 752.00 C 384.30 752.00 359.00 745.06 359.00 736.50 C 359.00 727.94 384.30 721.00 415.50 721.00 C 446.70 721.00 472.00 727.94 472.00 736.50 Z" fill="#7d7d7d" fill-opacity="0.1" fill-rule="nonzero" node-id="275" stroke="none" target-height="31" target-width="113" target-x="359" target-y="721"></path><path d="M 424.23 578.29 L 448.03 579.84 L 446.45 604.01 L 422.66 602.46 L 424.23 578.29 Z" fill="url(#paint8_linear_1512_110638)" fill-rule="nonzero" node-id="277" stroke="none" target-height="25.720032" target-width="25.369995" target-x="422.66" target-y="578.29"></path><path d="M 428.34 586.20 C 415.38 583.84 407.09 569.81 409.81 554.86 C 412.53 539.90 425.25 529.70 438.20 532.05 C 451.16 534.41 459.45 548.45 456.73 563.40 C 454.01 578.35 441.30 588.56 428.34 586.20 Z" fill="url(#paint9_linear_1512_110638)" fill-rule="nonzero" node-id="279" stroke="none" target-height="58.859985" target-width="52.360016" target-x="407.09" target-y="529.7"></path><path d="M 440.69 563.22 C 439.51 562.20 438.06 561.06 436.45 559.79 C 429.51 554.81 421.88 551.95 416.87 550.08 C 413.89 548.96 411.83 548.19 411.41 547.53 C 410.49 546.10 412.30 533.79 420.61 527.74 C 422.22 526.30 424.10 525.05 426.15 523.96 C 451.40 512.94 466.94 532.07 469.05 534.67 L 469.05 534.67 C 469.18 534.83 469.26 534.93 469.29 534.95 C 469.33 535.23 469.38 535.51 469.42 535.79 C 470.91 537.51 471.87 538.93 472.32 539.59 C 472.47 539.82 472.57 539.96 472.60 539.99 C 476.08 563.73 468.84 571.81 460.00 577.98 C 453.70 582.09 448.96 580.82 448.13 580.60 C 448.03 580.58 447.99 580.56 448.01 580.58 C 448.01 580.58 444.23 578.60 443.76 574.92 C 446.68 576.46 454.69 572.93 452.91 563.91 C 449.52 557.00 444.12 561.12 441.67 562.99 C 441.42 563.18 441.19 563.35 441.01 563.49 C 440.92 563.39 440.83 563.29 440.74 563.20 C 440.73 563.20 440.72 563.21 440.71 563.22 C 440.71 563.22 440.71 563.23 440.71 563.23 C 440.70 563.22 440.70 563.22 440.69 563.22 Z" fill="url(#paint10_linear_1512_110638)" fill-rule="evenodd" node-id="281" stroke="none" target-height="69.150024" target-width="65.59" target-x="410.49" target-y="512.94"></path><path d="M 382.84 747.67 L 372.77 746.91 L 371.75 760.34 L 381.83 761.10 Z" fill="#fee4c3" fill-rule="nonzero" group-id="1" node-id="285" stroke="none" target-height="14.190002" target-width="11.089996" target-x="371.75" target-y="746.91"></path><path d="M 358.37 765.88 C 358.86 770.51 364.49 770.32 371.89 769.54 C 379.29 768.76 387.20 767.92 388.34 762.72 C 388.29 762.95 389.66 759.20 384.11 754.70 C 384.11 754.70 379.44 758.58 372.38 755.94 C 365.98 757.91 358.01 762.44 358.37 765.88 Z" fill="#7b7b7b" fill-rule="nonzero" node-id="288" stroke="none" target-height="15.809998" target-width="31.649994" target-x="358.01" target-y="754.7"></path><path d="M 362.14 736.09 L 352.06 735.37 L 351.11 748.81 L 361.19 749.53 Z" fill="#fee4c3" fill-rule="nonzero" group-id="2" node-id="292" stroke="none" target-height="14.160034" target-width="11.030029" target-x="351.11" target-y="735.37"></path><path d="M 335.98 756.03 C 336.53 760.65 342.15 760.38 349.54 759.50 C 356.93 758.63 364.83 757.69 365.90 752.47 C 365.85 752.70 367.18 748.93 361.57 744.51 C 361.57 744.51 356.95 748.45 349.86 745.90 C 343.49 747.96 335.57 752.59 335.98 756.03 Z" fill="#7b7b7b" fill-rule="nonzero" node-id="295" stroke="none" target-height="16.140015" target-width="31.609985" target-x="335.57" target-y="744.51"></path><path d="M 423.02 591.51 C 423.02 591.51 410.83 593.88 404.70 600.98 C 394.61 612.69 386.37 634.18 386.37 634.18 C 386.37 634.18 384.88 640.88 378.06 649.62 C 370.64 659.12 368.36 660.09 368.36 660.09 C 368.36 660.09 378.68 665.94 376.40 666.04 C 373.61 666.17 361.76 673.89 361.76 673.89 L 391.57 684.07 C 391.57 684.07 367.59 681.16 380.93 677.69 C 390.90 675.09 396.35 664.71 396.35 664.71 L 423.02 591.51 Z" fill="url(#paint11_linear_1512_110638)" fill-rule="evenodd" node-id="297" stroke="none" target-height="92.56" target-width="61.25998" target-x="361.76" target-y="591.51"></path><path d="M 422.86 590.00 C 430.51 602.11 441.76 596.39 446.43 592.01 C 446.99 592.10 450.79 594.67 455.11 601.89 C 461.86 613.18 468.08 664.71 460.15 703.41 C 434.27 701.61 371.33 704.55 375.04 698.32 C 379.69 690.53 391.68 636.20 395.97 619.84 C 397.68 613.33 408.76 592.89 422.86 590.00 Z" fill="url(#paint12_linear_1512_110638)" fill-rule="nonzero" node-id="299" stroke="none" target-height="114.54999" target-width="96.75" target-x="371.33" target-y="590"></path><path d="M 458.08 703.05 C 458.08 703.05 453.47 733.75 439.29 736.35 C 439.29 736.35 415.20 743.66 399.99 711.16 L 387.01 749.61 C 386.81 750.19 386.45 750.68 385.97 751.01 C 385.50 751.35 384.93 751.51 384.36 751.47 C 383.67 751.42 382.83 751.34 381.88 751.22 C 379.44 750.93 377.03 750.41 374.67 749.66 C 372.15 748.91 369.78 747.64 367.68 745.92 C 367.12 745.44 366.61 744.90 366.14 744.31 C 366.14 744.31 365.48 744.12 364.39 743.79 C 363.63 743.55 362.64 743.25 361.54 742.89 C 359.35 742.18 356.73 741.28 354.44 740.37 C 352.57 739.78 350.80 738.83 349.23 737.55 C 347.32 735.14 338.65 636.70 367.71 630.54 C 367.71 630.54 374.67 629.70 380.73 639.98 C 380.81 640.11 380.90 640.25 380.98 640.38 C 381.35 640.33 381.71 640.26 382.07 640.16 C 383.66 639.74 385.64 638.93 385.64 638.93 C 385.64 638.93 396.39 627.95 405.21 640.97 C 414.03 653.99 424.73 697.39 426.74 700.67 L 458.08 703.05 Z" fill="#dcdcdc" fill-rule="nonzero" node-id="301" stroke="none" target-height="123.56" target-width="119.42999" target-x="338.65" target-y="627.95"></path><path d="M 383.29 639.87 C 382.30 646.37 369.47 737.83 367.77 745.95 C 367.17 745.47 366.61 744.94 366.11 744.35 C 366.11 744.35 365.38 744.17 364.20 743.84 L 381.69 640.40 L 383.29 639.87 Z" fill="#d5d5d5" fill-rule="nonzero" node-id="303" stroke="none" target-height="106.08002" target-width="19.089996" target-x="364.2" target-y="639.87"></path><path d="M 419.17 591.23 C 419.17 591.23 421.10 589.83 422.76 590.09 C 430.31 600.47 441.44 595.84 446.31 592.10 C 446.50 591.96 447.98 592.36 449.38 594.29 C 432.64 605.29 422.27 596.83 419.17 591.23 Z" fill="#fb955b" fill-rule="nonzero" node-id="305" stroke="none" target-height="15.459961" target-width="30.209991" target-x="419.17" target-y="589.83"></path><path d="M 375.87 660.43 C 374.17 663.79 370.48 662.57 364.82 660.35 C 359.15 658.13 353.55 654.89 355.14 650.83 C 356.73 646.76 363.56 645.26 369.23 647.48 C 382.71 645.32 387.67 658.83 375.87 660.43 Z" fill="url(#paint13_linear_1512_110638)" fill-rule="nonzero" node-id="307" stroke="none" target-height="18.529968" target-width="34.120026" target-x="353.55" target-y="645.26"></path><path d="M 417.81 590.00 C 406.50 580.25 379.86 598.55 364.26 608.39 C 356.21 613.47 327.32 637.60 334.63 647.30 C 340.48 655.06 348.73 658.37 363.19 659.62 L 369.97 647.30 C 361.59 640.49 361.62 643.03 356.73 639.17 C 357.62 638.45 360.34 632.02 368.01 630.52 C 376.40 631.06 429.59 601.78 417.81 590.00 Z" fill="url(#paint14_linear_1512_110638)" fill-rule="nonzero" node-id="309" stroke="none" target-height="79.369995" target-width="102.26999" target-x="327.32" target-y="580.25"></path><path d="M 379.94 652.70 C 381.54 649.29 385.26 650.39 390.99 652.43 C 396.72 654.47 402.43 657.54 400.96 661.65 C 399.50 665.76 392.72 667.47 386.99 665.43 C 373.57 668.02 368.20 654.67 379.94 652.70 Z" fill="url(#paint15_linear_1512_110638)" fill-rule="nonzero" node-id="311" stroke="none" target-height="18.730042" target-width="34.22998" target-x="368.2" target-y="649.29"></path><path d="M 468.03 616.48 C 468.03 598.28 453.97 596.31 449.40 594.64 C 447.26 595.18 445.19 596.78 443.51 598.92 C 434.53 610.39 424.35 643.35 418.99 653.61 C 412.51 651.85 399.40 652.00 388.79 652.05 L 384.43 667.19 C 396.70 669.50 415.35 673.74 425.06 673.96 C 437.20 674.23 468.03 626.00 468.03 616.48 Z" fill="url(#paint16_linear_1512_110638)" fill-rule="nonzero" node-id="313" stroke="none" target-height="79.589966" target-width="83.600006" target-x="384.43" target-y="594.64"></path><path d="M 411.58 541.28 C 423.89 548.01 428.24 550.28 443.64 559.47 C 467.19 573.52 469.23 572.92 474.08 564.00 C 482.18 546.13 476.89 528.27 460.72 520.94 C 444.55 513.60 420.01 516.08 411.58 541.28 Z" fill="#585449" fill-rule="nonzero" node-id="315" stroke="none" target-height="59.920044" target-width="70.600006" target-x="411.58" target-y="513.6"></path><path d="M 397.25 527.93 L 397.13 529.03 L 397.63 530.46 L 399.07 532.40 L 400.84 534.13 L 403.26 536.09 L 406.47 538.31 L 411.62 541.32 L 417.87 544.39 L 424.33 547.00 L 430.01 548.82 L 433.80 549.73 L 436.88 550.23 L 439.34 550.39 L 441.76 550.17 L 443.15 549.59 L 443.88 548.76 L 444.01 547.67 L 443.51 546.24 L 442.06 544.29 L 440.30 542.57 L 437.88 540.61 L 434.67 538.39 L 429.52 535.38 L 423.27 532.31 L 416.81 529.70 L 411.13 527.88 L 407.33 526.96 L 404.26 526.47 L 401.80 526.31 L 399.38 526.53 L 397.99 527.11 L 397.25 527.93 Z" fill="#585449" fill-rule="nonzero" group-id="3" node-id="319" stroke="none" target-height="24.080017" target-width="46.880005" target-x="397.13" target-y="526.31"></path><path d="M 451.95 571.00 L 452.86 569.27 L 453.29 567.49 L 453.27 565.70 L 452.83 564.03 L 451.96 562.55 L 450.68 561.36 L 449.10 560.59 L 447.41 560.31 L 445.69 560.50 L 444.02 561.13 L 442.51 562.17 L 441.22 563.63 L 440.31 565.37 L 439.88 567.15 L 439.90 568.94 L 440.34 570.61 L 441.21 572.08 L 442.49 573.28 L 444.08 574.05 L 445.76 574.33 L 447.48 574.14 L 449.16 573.51 L 450.66 572.47 L 451.95 571.00 Z" fill="#ffe9cd" fill-rule="nonzero" group-id="4" node-id="324" stroke="none" target-height="14.02002" target-width="13.410004" target-x="439.88" target-y="560.31"></path><path d="M 246.98 541.32 C 249.05 535.67 258.62 534.06 264.49 534.26 C 262.99 551.83 244.33 551.46 235.85 550.16 C 238.64 549.57 244.93 546.92 246.98 541.32 Z" fill="url(#paint17_linear_1512_110638)" fill-rule="nonzero" node-id="327" stroke="none" target-height="17.77002" target-width="28.639984" target-x="235.85" target-y="534.06"></path><path d="M 262.65 536.13 C 259.50 540.10 250.91 547.54 238.41 550.06" fill="none" node-id="329" stroke="url(#paint18_linear_1512_110638)" stroke-linecap="butt" stroke-width="0.3" target-height="13.929993" target-width="24.23999" target-x="238.41" target-y="536.13"></path><path d="M 313.36 444.00 C 314.14 463.50 306.21 508.31 268.23 531.59" fill="none" node-id="331" stroke="url(#paint19_linear_1512_110638)" stroke-linecap="butt" stroke-width="1" target-height="87.59003" target-width="45.910004" target-x="268.23" target-y="444"></path><path d="M 281.99 468.26 C 281.11 479.38 278.49 492.63 268.98 493.40 C 262.00 493.97 266.97 484.46 270.80 487.75 C 274.63 491.04 272.05 503.18 253.01 506.74" fill="none" node-id="333" stroke="url(#paint20_linear_1512_110638)" stroke-linecap="butt" stroke-width="1" target-height="38.47998" target-width="28.979996" target-x="253.01" target-y="468.26"></path><path d="M 324.73 489.88 C 323.29 499.16 317.39 518.98 305.28 524.03" fill="none" node-id="335" stroke="url(#paint21_linear_1512_110638)" stroke-linecap="butt" stroke-width="1" target-height="34.150024" target-width="19.450012" target-x="305.28" target-y="489.88"></path></g></svg>